Coordinates
version=1
nRows=9
nColumns=63
inDegrees=yes

Units are S.I. units (second, meters, Newtons, ...)
If the header above contains a line with 'inDegrees', this indicates whether rotational values are in degrees (yes) or radians (no).

endheader
time	pelvis_tilt	pelvis_list	pelvis_rotation	pelvis_tx	pelvis_ty	pelvis_tz	hip_flexion_r	hip_adduction_r	hip_rotation_r	knee_angle_r	knee_angle_r_beta	ankle_angle_r	subtalar_angle_r	mtp_angle_r	hip_flexion_l	hip_adduction_l	hip_rotation_l	knee_angle_l	knee_angle_l_beta	ankle_angle_l	subtalar_angle_l	mtp_angle_l	L5_S1_Flex_Ext	L5_S1_Lat_Bending	L5_S1_axial_rotation	L4_L5_Flex_Ext	L4_L5_Lat_Bending	L4_L5_axial_rotation	L3_L4_Flex_Ext	L3_L4_Lat_Bending	L3_L4_axial_rotation	L2_L3_Flex_Ext	L2_L3_Lat_Bending	L2_L3_axial_rotation	L1_L2_Flex_Ext	L1_L2_Lat_Bending	L1_L2_axial_rotation	L1_T12_Flex_Ext	L1_T12_Lat_Bending	L1_T12_axial_rotation	Abs_r3	Abs_r2	Abs_r1	Abs_t1	Abs_t2	neck_flexion	neck_bending	neck_rotation	arm_flex_r	arm_add_r	arm_rot_r	elbow_flex_r	pro_sup_r	wrist_flex_r	wrist_dev_r	arm_flex_l	arm_add_l	arm_rot_l	elbow_flex_l	pro_sup_l	wrist_flex_l	wrist_dev_l
      0.00000000	     -4.37230234	     -2.92666863	     88.55471700	     -0.01113268	      0.93822246	      0.57136346	      2.68578535	     -4.00777506	    -10.90900800	     10.06396896	      0.17564939	     30.97843327	     13.11954429	      0.00000000	      3.55516498	      3.61423137	      1.07902285	      8.31834289	      0.14518247	     25.81729320	     -4.68438114	      0.00000000	      0.14555998	     -0.46685765	      1.80033729	      0.27031945	     -0.62092067	      1.91285837	      0.23914050	     -1.13511769	      1.91285837	      0.16636051	     -1.13511769	      1.57529513	      0.13516700	     -0.95201612	      1.46277405	      0.08317298	     -0.72316250	      1.35025297	      1.03972042	     -5.28118711	     10.01293591	      0.00000000	      0.00000000	     16.89012148	      1.10816603	    -21.04115670	     14.10675685	    -10.72735956	     56.15770295	     40.59751728	     82.66890171	      7.81995848	     -2.28907333	     27.36933967	     -5.46440046	     80.17409003	     51.69473919	     36.58574897	     -8.91697794	      2.96210285
      0.01960784	     -4.05202783	     -3.35059323	     90.14475777	     -0.01217704	      0.93806198	      0.57352699	      2.98834906	     -3.81133992	    -13.57303857	     10.08150365	      0.17595543	     30.51315480	     14.43581424	      0.00000000	      4.33436270	      3.38404727	      3.45674921	      9.00819625	      0.15722268	     25.00734345	     -5.97685724	      0.00000000	      0.15081307	     -0.47172204	      1.61894361	      0.28007495	     -0.62739031	      1.72012758	      0.24777079	     -1.14694497	      1.72012758	      0.17236426	     -1.14694497	      1.41657566	      0.14004502	     -0.96193558	      1.31539168	      0.08617459	     -0.73069744	      1.21420771	      1.07724268	     -5.33621405	      9.00407866	      0.00000000	      0.00000000	     15.24163482	      0.26434192	    -23.07420065	     11.15309964	    -10.83626063	     53.11618240	     43.54476328	     46.34584966	      6.63961337	      4.36624251	     28.03869565	     -5.93649478	     83.26754585	     52.16994005	     37.43977739	     -9.41574652	      0.96348048
      0.03921569	     -3.72207815	     -3.65303518	     91.26179213	     -0.01314534	      0.93774109	      0.57516692	      3.21766711	     -3.58218917	    -15.33114477	     10.10946791	      0.17644350	     30.31205060	     15.30760752	      0.00000000	      4.91171898	      3.15044301	      4.94017994	      9.47323260	      0.16533910	     24.65652490	     -6.59060842	      0.00000000	      0.15418962	     -0.45430220	      1.46962072	      0.28634555	     -0.60422193	      1.56147201	      0.25331813	     -1.10459037	      1.56147201	      0.17622332	     -1.10459037	      1.28591813	      0.14318048	     -0.92641305	      1.19406683	      0.08810395	     -0.70371411	      1.10221554	      1.10136105	     -5.13915736	      8.17358955	      0.00000000	      0.00000000	     14.49560936	     -0.34102632	    -24.21867624	      9.18188585	    -10.75605105	     49.60932273	     45.87052113	     34.67003269	      4.95310634	      7.70065698	     28.43668923	     -6.16690764	     85.41973318	     52.50997227	     37.72443724	     -9.79696543	     -0.11163611
      0.05882353	     -3.45890939	     -3.78448249	     91.54824547	     -0.01324467	      0.93735745	      0.57606443	      3.39294207	     -3.33131249	    -15.54536727	     10.21719860	      0.17832376	     30.33368022	     15.25986970	      0.00000000	      5.12806257	      2.89321168	      5.20810021	      9.56619037	      0.16696152	     24.73606916	     -6.52508800	      0.00000000	      0.15654153	     -0.42925108	      1.36044450	      0.29071327	     -0.57090394	      1.44547228	      0.25718208	     -1.04368108	      1.44547228	      0.17891131	     -1.04368108	      1.19038894	      0.14536446	     -0.87532880	      1.10536116	      0.08944783	     -0.66490992	      1.02033338	      1.11816049	     -4.85577408	      7.56638419	      0.00000000	      0.00000000	     14.41765067	     -0.45270193	    -24.09665093	      8.67219816	    -10.81519867	     49.25621413	     46.56124783	     33.96372667	      5.17323814	      7.38986491	     28.35062293	     -6.63874909	     86.10353469	     53.01798875	     38.05451585	     -9.63426373	     -0.17391184
      0.07843137	     -3.12937409	     -3.92592385	     92.73612341	     -0.01485093	      0.93713883	      0.57685449	      3.37074819	     -3.09851633	    -17.11522092	     10.16052892	      0.17733468	     30.46638590	     15.79901738	      0.00000000	      5.54485069	      2.71529517	      6.73425966	      9.93750942	      0.17344226	     24.96594853	     -6.84989228	      0.00000000	      0.16408731	     -0.39182496	      1.11622665	      0.30472655	     -0.52112719	      1.18599081	      0.26957904	     -0.95268320	      1.18599081	      0.18753539	     -0.95268320	      0.97669832	      0.15237148	     -0.79900945	      0.90693415	      0.09375949	     -0.60693686	      0.83716998	      1.17205926	     -4.43240226	      6.20811774	      0.00000000	      0.00000000	     14.88226906	     -0.42578207	    -23.87419408	      8.50868076	    -11.19416235	     51.18830341	     48.03359113	     21.25058650	      1.59549276	      7.61148595	     28.43236681	     -6.53294657	     87.25188723	     52.90038567	     37.79390545	     -9.78216428	     -0.28591129
      0.09803922	     -3.08718574	     -3.92395564	     92.68000560	     -0.01510357	      0.93702658	      0.57658838	      3.33442791	     -3.06715697	    -17.01857168	     10.17856222	      0.17764942	     30.70913736	     15.83600363	      0.00000000	      5.53467221	      2.70444290	      6.70640144	      9.89799320	      0.17275257	     25.19918125	     -6.91235445	      0.00000000	      0.17280693	     -0.37977657	      1.07150962	      0.32091975	     -0.50510284	      1.13847897	      0.28390450	     -0.92338876	      1.13847897	      0.19750104	     -0.92338876	      0.93757092	      0.16046851	     -0.77444039	      0.87060156	      0.09874188	     -0.58827391	      0.80363221	      1.23434261	     -4.29610854	      5.95941504	      0.00000000	      0.00000000	     15.18000359	     -0.45768607	    -23.87754926	      8.20925433	    -11.08640925	     51.36216483	     47.94726735	     21.21747515	      1.57147535	      7.64950702	     28.11254845	     -6.55016481	     87.51742780	     52.84233398	     37.79756486	     -9.74763065	     -0.14289497
      0.11764706	     -2.73592817	     -4.10677353	     92.87275874	     -0.01529712	      0.93664929	      0.57686685	      3.55109044	     -2.71159303	    -16.98982583	     10.24747052	      0.17885210	     30.96542603	     15.73737132	      0.00000000	      5.74527995	      2.35373826	      6.96733947	      9.77500841	      0.17060608	     25.59632026	     -6.76219092	      0.00000000	      0.19290305	     -0.33581269	      0.98699351	      0.35824026	     -0.44663087	      1.04868061	      0.31692042	     -0.81649497	      1.04868061	      0.22046890	     -0.81649497	      0.86361933	      0.17912977	     -0.68478923	      0.80193223	      0.11022480	     -0.52017385	      0.74024514	      1.37788721	     -3.79878027	      5.48936183	      0.00000000	      0.00000000	     16.40293496	     -0.37901411	    -23.40738453	      8.25398653	    -11.09123956	     52.03732226	     47.73263899	     20.73091400	      1.39366100	      7.86166178	     28.13042904	     -6.51647866	     87.96147908	     52.93135290	     37.62151867	     -9.46935139	      0.79034859
      0.13725490	     -2.71775402	     -4.09900881	     92.87094968	     -0.01556566	      0.93659298	      0.57611836	      3.46608447	     -2.68276599	    -16.77041910	     10.21905808	      0.17835621	     31.30997508	     15.48817849	      0.00000000	      5.73352359	      2.35796059	      6.82382456	      9.79630364	      0.17097775	     25.91707099	     -6.76931348	      0.00000000	      0.20862772	     -0.32574282	      0.93710455	      0.38744255	     -0.43323795	      0.99567358	      0.34275449	     -0.79201109	      0.99567358	      0.23844063	     -0.79201109	      0.81996648	      0.19373171	     -0.66425476	      0.76139744	      0.11920988	     -0.50457563	      0.70282841	      1.49020697	     -3.68486794	      5.21189436	      0.00000000	      0.00000000	     16.75739811	     -0.32496847	    -23.22518694	      8.05421434	    -10.98198685	     52.37441140	     47.54936528	     20.63105584	      1.26550739	      7.92351743	     27.86416623	     -6.43146605	     88.09276820	     52.75588039	     37.53304307	     -9.36988676	      1.17287360
      0.15686275	     -2.60262374	     -3.99233470	     92.79774021	     -0.01566080	      0.93683002	      0.57587952	      3.27349653	     -2.51086208	    -16.29077197	     10.04333941	      0.17528934	     31.30532637	     15.08572644	      0.00000000	      5.63048701	      2.20508511	      6.31620984	      9.76124202	      0.17036581	     26.20124277	     -6.19786272	      0.00000000	      0.20194443	     -0.29301077	      0.77401500	      0.37503101	     -0.38970432	      0.82239094	      0.33177451	     -0.71242638	      0.82239094	      0.23080229	     -0.71242638	      0.67726313	      0.18752560	     -0.59750755	      0.62888719	      0.11539105	     -0.45387368	      0.58051125	      1.44246890	     -3.31459638	      4.30483925	      0.00000000	      0.00000000	     17.68728985	      0.84223627	    -20.54091271	      9.15208914	    -11.09297512	     55.72371812	     47.36957088	     15.57482339	      0.02216680	      7.85121644	     27.20713724	     -6.70195250	     85.91254112	     52.83390738	     36.08603935	     -6.93693137	      5.38065314
